<svg width="41" height="40" viewBox="0 0 41 40" fill="none" xmlns="http://www.w3.org/2000/svg">
<path d="M32.2858 40.0004C31.9937 40.0004 31.7408 39.7821 31.7049 39.4848L31.4261 37.1812C31.3872 36.8599 31.6161 36.5679 31.9373 36.5291C32.2577 36.4904 32.5506 36.7191 32.5894 37.0403L32.8682 39.3439C32.9072 39.6651 32.6782 39.9572 32.357 39.996C32.3332 39.9989 32.3093 40.0004 32.2858 40.0004ZM8.21408 40.0004C8.19056 40.0004 8.16689 39.9989 8.14291 39.996C7.82166 39.9572 7.59275 39.6652 7.63166 39.3439L8.51837 32.0181L6.6787 23.4179C6.61104 23.1014 6.81268 22.79 7.12909 22.7224C7.44541 22.6547 7.75697 22.8562 7.82463 23.1728L9.68485 31.8688C9.69844 31.9323 9.70133 31.9974 9.69352 32.0618L8.79501 39.4849C8.75907 39.7821 8.50626 40.0004 8.21408 40.0004ZM20.2496 37.6968C20.1663 37.6968 20.0817 37.6789 20.0012 37.6412L18.7627 37.0605C18.4696 36.923 18.3435 36.5741 18.4809 36.2812C18.6183 35.9881 18.9671 35.8619 19.2602 35.9994L20.4987 36.5802C20.7917 36.7176 20.9178 37.0665 20.7805 37.3595C20.6808 37.5721 20.4698 37.6968 20.2496 37.6968V37.6968ZM31.7387 35.4807C31.4466 35.4807 31.1937 35.2624 31.1578 34.9651L30.8064 32.0617C30.7986 31.9973 30.8015 31.9321 30.8151 31.8686L34.9819 12.3893C35.0202 12.2101 35.1402 12.0591 35.3061 11.9813L39.4151 10.0547C39.708 9.91738 40.0569 10.0435 40.1944 10.3365C40.3317 10.6295 40.2056 10.9784 39.9126 11.1158L36.0671 12.9188L31.9816 32.0181L32.3212 34.8243C32.3601 35.1456 32.1312 35.4376 31.81 35.4764C31.7861 35.4792 31.7622 35.4807 31.7387 35.4807V35.4807ZM20.25 35.0994C19.9263 35.0994 19.6641 34.8371 19.6641 34.5135V34.2019L18.7627 33.7793C18.4697 33.6419 18.3436 33.293 18.4809 33C18.6184 32.7069 18.9672 32.5808 19.2602 32.7182L19.7061 32.9273C19.7926 32.7118 20.0036 32.5596 20.2501 32.5596C20.5737 32.5596 20.836 32.8218 20.836 33.1455V34.5135C20.8359 34.8371 20.5736 35.0994 20.25 35.0994ZM20.2496 31.1343C20.1663 31.1343 20.0817 31.1165 20.0012 31.0788L18.7627 30.498C18.5503 30.3985 18.4256 30.1878 18.4253 29.9679C18.4252 29.8843 18.4431 29.7994 18.4809 29.7188C18.6183 29.4257 18.9671 29.2996 19.2602 29.437L20.4987 30.0178C20.711 30.1173 20.8357 30.328 20.836 30.5479C20.8361 30.6315 20.8182 30.7164 20.7805 30.797C20.6808 31.0097 20.4698 31.1343 20.2496 31.1343V31.1343ZM20.2496 27.8531C20.1663 27.8531 20.0817 27.8352 20.0012 27.7976L18.7627 27.2168C18.4696 27.0794 18.3435 26.7305 18.4809 26.4375C18.6183 26.1444 18.9671 26.0184 19.2602 26.1557L20.4987 26.7365C20.7917 26.8739 20.9178 27.2228 20.7805 27.5158C20.6808 27.7284 20.4698 27.8531 20.2496 27.8531V27.8531ZM20.2496 24.5719C20.1663 24.5719 20.0817 24.554 20.0012 24.5163L18.7627 23.9356C18.4696 23.7981 18.3435 23.4492 18.4809 23.1563C18.6183 22.8631 18.9671 22.7371 19.2602 22.8745L20.4987 23.4553C20.7917 23.5927 20.9178 23.9416 20.7805 24.2345C20.6808 24.4472 20.4698 24.5719 20.2496 24.5719V24.5719ZM24.374 21.5227C24.1538 21.5227 23.9428 21.3979 23.8431 21.1853C23.7057 20.8924 23.8318 20.5435 24.1249 20.4061C28.2474 18.4732 30.4814 16.3177 30.4814 10.4731C30.4814 10.2458 30.6129 10.039 30.8186 9.94253L32.8314 8.99879C33.1242 8.86145 33.4732 8.98746 33.6107 9.28058C33.748 9.57355 33.6219 9.92246 33.3289 10.0599L31.6504 10.8468C31.6051 13.6896 31.0367 15.807 29.8716 17.4875C28.793 19.0433 27.1742 20.2707 24.6224 21.4671C24.5419 21.5048 24.4573 21.5227 24.374 21.5227ZM16.126 21.5227C16.0427 21.5227 15.9581 21.5048 15.8776 21.4671C13.3258 20.2707 11.7069 19.0433 10.6284 17.4876C9.99812 16.5784 9.54242 15.5415 9.24977 14.331L7.66861 15.0723C7.37565 15.2098 7.02682 15.0836 6.88932 14.7905C6.75198 14.4976 6.87807 14.1487 7.17112 14.0113L9.02259 13.1432C8.9979 12.9724 8.97571 12.7987 8.95626 12.6216H6.89713C6.57346 12.6216 6.3112 12.3593 6.3112 12.0356C6.3112 11.712 6.57346 11.4497 6.89713 11.4497H8.86759C8.85884 11.2526 8.8529 11.0515 8.8497 10.8469L7.17119 10.06C6.87815 9.92253 6.75206 9.57363 6.8894 9.28066C7.0269 8.98754 7.37572 8.86152 7.66869 8.99887L9.68149 9.94261C9.88727 10.0391 10.0187 10.2459 10.0187 10.4732C10.0187 16.3178 12.2527 18.4732 16.3752 20.4061C16.6682 20.5436 16.7943 20.8925 16.657 21.1854C16.5571 21.3979 16.3461 21.5227 16.126 21.5227V21.5227ZM6.74651 21.5227C6.47604 21.5227 6.233 21.3343 6.17417 21.0592L4.43286 12.9189L0.587342 11.1159C0.294298 10.9785 0.168205 10.6296 0.305548 10.3366C0.442968 10.0435 0.791794 9.91746 1.08484 10.0548L5.19379 11.9813C5.35972 12.0592 5.47972 12.2102 5.518 12.3894L7.3201 20.8141C7.38776 21.1305 7.18612 21.4419 6.86963 21.5096C6.82838 21.5184 6.78713 21.5227 6.74651 21.5227ZM20.2496 21.2907C20.1663 21.2907 20.0817 21.2728 20.0012 21.2351L18.7627 20.6543C18.4696 20.5169 18.3435 20.168 18.4809 19.875C18.6183 19.5819 18.9671 19.4558 19.2602 19.5932L20.4987 20.174C20.7917 20.3114 20.9178 20.6604 20.7805 20.9533C20.6808 21.166 20.4698 21.2907 20.2496 21.2907V21.2907ZM20.25 19.0193C19.9263 19.0193 19.6641 18.757 19.6641 18.4333V17.6395L18.7627 17.2169C18.4697 17.0795 18.3436 16.7306 18.4809 16.4376C18.6184 16.1445 18.9672 16.0185 19.2602 16.1559L19.6641 16.3452V14.202L18.7628 13.7795C18.4698 13.642 18.3437 13.2931 18.481 13.0002C18.6184 12.7071 18.9673 12.581 19.2603 12.7184L19.6642 12.9077V12.0356C19.6642 11.712 19.9265 11.4497 20.2501 11.4497C20.5738 11.4497 20.8361 11.712 20.8361 12.0356V18.4334C20.8359 18.757 20.5736 19.0193 20.25 19.0193V19.0193ZM17.4371 18.8688C17.3538 18.8688 17.2692 18.8509 17.1887 18.8133L15.9502 18.2325C15.6571 18.0951 15.531 17.7462 15.6684 17.4532C15.8058 17.1601 16.1546 17.034 16.4477 17.1714L17.6863 17.7522C17.9792 17.8896 18.1053 18.2385 17.968 18.5315C17.8684 18.7441 17.6573 18.8688 17.4371 18.8688V18.8688ZM14.6246 16.4469C14.5414 16.4469 14.4568 16.4291 14.3762 16.3914L13.1377 15.8106C12.8447 15.6732 12.7186 15.3243 12.8559 15.0313C12.9933 14.7382 13.3422 14.6121 13.6352 14.7495L14.8738 15.3303C15.1668 15.4677 15.2928 15.8166 15.1555 16.1096C15.0559 16.3223 14.8448 16.4469 14.6246 16.4469V16.4469ZM17.4371 15.4313C17.3538 15.4313 17.2692 15.4134 17.1887 15.3758L15.9502 14.795C15.6571 14.6576 15.531 14.3087 15.6684 14.0157C15.8058 13.7226 16.1546 13.5966 16.4477 13.7339L17.6863 14.3147C17.9792 14.4521 18.1053 14.801 17.968 15.094C17.8684 15.3066 17.6573 15.4313 17.4371 15.4313V15.4313ZM14.6246 13.0095C14.5414 13.0095 14.4568 12.9916 14.3762 12.9539L13.1377 12.3731C12.8447 12.2357 12.7186 11.8868 12.8559 11.5939C12.9933 11.3007 13.3422 11.1746 13.6352 11.3121L14.8738 11.8928C15.1668 12.0303 15.2928 12.3792 15.1555 12.6721C15.0559 12.8848 14.8448 13.0095 14.6246 13.0095V13.0095ZM17.4371 11.9938C17.3538 11.9938 17.2692 11.976 17.1887 11.9383L15.9502 11.3575C15.6571 11.2201 15.531 10.8712 15.6684 10.5782C15.8058 10.2851 16.1546 10.159 16.4477 10.2964L17.6863 10.8772C17.9792 11.0146 18.1053 11.3635 17.968 11.6565C17.8684 11.8692 17.6573 11.9938 17.4371 11.9938V11.9938ZM23.0629 8.95637C22.8426 8.95637 22.6316 8.8316 22.5319 8.61903C22.3946 8.32606 22.5207 7.97716 22.8137 7.83974L25.3053 6.67154C24.9659 6.22545 24.7752 5.67475 24.7752 5.09975V0.586504C24.7752 0.262834 25.0375 0.000570246 25.3611 0.000570246C25.6848 0.000570246 25.9471 0.262834 25.9471 0.586504V5.09983C25.9471 5.35608 26.0161 5.6035 26.1419 5.8185C27.1839 3.69117 29.1117 2.11462 31.4414 1.52673C31.7553 1.44751 32.0736 1.63775 32.1529 1.95157C32.232 2.2654 32.0418 2.58391 31.728 2.66305C29.4887 3.22805 27.6836 4.86015 26.8994 7.02896C26.8466 7.17505 26.7378 7.29427 26.5971 7.36021L23.3111 8.9009C23.2307 8.93856 23.1461 8.95637 23.0629 8.95637V8.95637ZM17.4371 8.95637C17.3538 8.95637 17.2692 8.93848 17.1888 8.90082L13.9027 7.36013C13.762 7.29411 13.6533 7.17497 13.6004 7.02888C12.3008 3.43477 8.31962 1.56829 4.72551 2.86766C4.57926 2.92047 4.41809 2.91313 4.27755 2.84719L0.587342 1.11705C0.294298 0.979626 0.168205 0.630722 0.305548 0.337755C0.442968 0.0446324 0.791794 -0.0814604 1.08484 0.0559605L4.56004 1.6854C8.41923 0.419708 12.6008 2.2268 14.3582 5.81819C14.4839 5.60327 14.5529 5.35592 14.5529 5.09975V0.586504C14.5529 0.262834 14.8152 0.000570246 15.1389 0.000570246C15.4625 0.000570246 15.7248 0.262834 15.7248 0.586504V5.09983C15.7248 5.67483 15.5341 6.22553 15.1946 6.67162L17.6863 7.83981C17.9793 7.97723 18.1054 8.32614 17.9681 8.6191C17.8684 8.83168 17.6573 8.95637 17.4371 8.95637V8.95637ZM35.9737 2.90266C35.9064 2.90266 35.8389 2.8911 35.7744 2.86774C35.1564 2.6443 34.5141 2.50954 33.8653 2.46727C33.5423 2.44618 33.2975 2.16735 33.3186 1.84446C33.3397 1.52142 33.6207 1.27658 33.9414 1.29783C34.6191 1.34197 35.2902 1.4722 35.9399 1.6854L39.4151 0.0559605C39.7081 -0.0814604 40.0569 0.0447106 40.1944 0.337755C40.3318 0.630722 40.2057 0.979626 39.9126 1.11705L36.2224 2.84727C36.1438 2.88414 36.0588 2.90266 35.9737 2.90266Z" fill="#FF63CA"/>
</svg>
